# Blender v2.75 (sub 0) OBJ File: ''
# www.blender.org
mtllib fumetto.mtl
o Cube
v 1.000000 0.118506 -1.000000
v 1.000000 0.118506 1.000000
v 0.733616 0.118506 1.000000
v 0.733616 0.118506 -1.000000
v 1.000000 2.118505 -0.999999
v 0.999999 2.118505 1.000001
v 0.733616 2.118505 1.000000
v 0.733616 2.118505 -1.000000
vt 0.000000 0.000000
vt 1.000000 0.000000
vt 1.000000 1.000000
vt 0.000000 1.000000
vn 0.000000 -1.000000 -0.000000
vn 0.000000 1.000000 0.000000
vn -0.000000 -0.000000 1.000000
vn -1.000000 -0.000000 -0.000000
vn 0.000000 0.000000 -1.000000
vn 1.000000 0.000000 0.000000
usemtl Material
s off
f 1/1/1 2/1/1 3/1/1 4/1/1
f 5/1/2 8/1/2 7/1/2 6/1/2
f 2/1/3 6/1/3 7/1/3 3/1/3
f 3/1/4 7/1/4 8/1/4 4/1/4
f 5/1/5 1/1/5 4/1/5 8/1/5
usemtl Material_letter_R.png
f 1/1/6 5/2/6 6/3/6 2/4/6
